<mxfile host="app.diagrams.net" modified="2023-02-23T09:51:20.288Z" agent="5.0 (Linux; Android 13; SM-X800) AppleWebKit/537.36 (KHTML, like Gecko) Chrome/110.0.0.0 Safari/537.36" etag="B6kNPIk9chNKgv7Z-iZS" version="20.8.23" type="github" pages="6">
  <diagram name="Page-1" id="2uTSXbhRYP3rcx5WWeBE">
    <mxGraphModel dx="832" dy="652" grid="1" gridSize="10" guides="1" tooltips="1" connect="1" arrows="1" fold="1" page="1" pageScale="1" pageWidth="850" pageHeight="1100" math="0" shadow="0">
      <root>
        <mxCell id="kBsdiCzwA7r4rEjokHal-0" />
        <mxCell id="kBsdiCzwA7r4rEjokHal-1" parent="kBsdiCzwA7r4rEjokHal-0" />
        <mxCell id="U8if882Ww-JnEzy6yIA2-0" style="edgeStyle=orthogonalEdgeStyle;rounded=0;orthogonalLoop=1;jettySize=auto;html=1;entryX=0;entryY=0.5;entryDx=0;entryDy=0;dashed=1;" parent="kBsdiCzwA7r4rEjokHal-1" source="U8if882Ww-JnEzy6yIA2-2" target="U8if882Ww-JnEzy6yIA2-43" edge="1">
          <mxGeometry relative="1" as="geometry" />
        </mxCell>
        <mxCell id="U8if882Ww-JnEzy6yIA2-1" value="&amp;lt;&amp;lt;include&amp;gt;&amp;gt;" style="edgeLabel;html=1;align=center;verticalAlign=middle;resizable=0;points=[];" parent="U8if882Ww-JnEzy6yIA2-0" vertex="1" connectable="0">
          <mxGeometry x="-0.1403" y="-1" relative="1" as="geometry">
            <mxPoint as="offset" />
          </mxGeometry>
        </mxCell>
        <mxCell id="U8if882Ww-JnEzy6yIA2-2" value="View available parkings" style="ellipse;whiteSpace=wrap;html=1;" parent="kBsdiCzwA7r4rEjokHal-1" vertex="1">
          <mxGeometry x="170" y="500" width="120" height="80" as="geometry" />
        </mxCell>
        <mxCell id="U8if882Ww-JnEzy6yIA2-3" value="Access Account settings" style="ellipse;whiteSpace=wrap;html=1;" parent="kBsdiCzwA7r4rEjokHal-1" vertex="1">
          <mxGeometry x="170" y="380" width="120" height="80" as="geometry" />
        </mxCell>
        <mxCell id="U8if882Ww-JnEzy6yIA2-4" style="edgeStyle=orthogonalEdgeStyle;rounded=0;orthogonalLoop=1;jettySize=auto;html=1;dashed=1;exitX=0.5;exitY=0;exitDx=0;exitDy=0;entryX=0.5;entryY=1;entryDx=0;entryDy=0;" parent="kBsdiCzwA7r4rEjokHal-1" source="U8if882Ww-JnEzy6yIA2-36" target="U8if882Ww-JnEzy6yIA2-6" edge="1">
          <mxGeometry relative="1" as="geometry">
            <mxPoint x="190" y="770" as="targetPoint" />
            <Array as="points" />
          </mxGeometry>
        </mxCell>
        <mxCell id="U8if882Ww-JnEzy6yIA2-5" value="&amp;lt;&amp;lt;extend&amp;gt;&amp;gt;" style="edgeLabel;html=1;align=center;verticalAlign=middle;resizable=0;points=[];" parent="U8if882Ww-JnEzy6yIA2-4" vertex="1" connectable="0">
          <mxGeometry x="-0.2298" y="-1" relative="1" as="geometry">
            <mxPoint as="offset" />
          </mxGeometry>
        </mxCell>
        <mxCell id="U8if882Ww-JnEzy6yIA2-6" value="View fines history" style="ellipse;whiteSpace=wrap;html=1;" parent="kBsdiCzwA7r4rEjokHal-1" vertex="1">
          <mxGeometry x="170" y="630" width="120" height="80" as="geometry" />
        </mxCell>
        <mxCell id="U8if882Ww-JnEzy6yIA2-10" value="Modify regestired cars" style="ellipse;whiteSpace=wrap;html=1;" parent="kBsdiCzwA7r4rEjokHal-1" vertex="1">
          <mxGeometry x="317.5" y="280" width="92.5" height="60" as="geometry" />
        </mxCell>
        <mxCell id="U8if882Ww-JnEzy6yIA2-11" value="Edit car information" style="ellipse;whiteSpace=wrap;html=1;" parent="kBsdiCzwA7r4rEjokHal-1" vertex="1">
          <mxGeometry x="497.5" y="180" width="90" height="60" as="geometry" />
        </mxCell>
        <mxCell id="U8if882Ww-JnEzy6yIA2-12" style="edgeStyle=orthogonalEdgeStyle;rounded=0;orthogonalLoop=1;jettySize=auto;html=1;entryX=1;entryY=0.5;entryDx=0;entryDy=0;dashed=1;" parent="kBsdiCzwA7r4rEjokHal-1" source="U8if882Ww-JnEzy6yIA2-14" target="U8if882Ww-JnEzy6yIA2-10" edge="1">
          <mxGeometry relative="1" as="geometry" />
        </mxCell>
        <mxCell id="U8if882Ww-JnEzy6yIA2-13" value="&amp;lt;&amp;lt;extend&amp;gt;&amp;gt;" style="edgeLabel;html=1;align=center;verticalAlign=middle;resizable=0;points=[];" parent="U8if882Ww-JnEzy6yIA2-12" vertex="1" connectable="0">
          <mxGeometry x="-0.0296" y="2" relative="1" as="geometry">
            <mxPoint as="offset" />
          </mxGeometry>
        </mxCell>
        <mxCell id="U8if882Ww-JnEzy6yIA2-14" value="Remove car" style="ellipse;whiteSpace=wrap;html=1;" parent="kBsdiCzwA7r4rEjokHal-1" vertex="1">
          <mxGeometry x="510" y="275" width="90" height="60" as="geometry" />
        </mxCell>
        <mxCell id="U8if882Ww-JnEzy6yIA2-15" style="edgeStyle=orthogonalEdgeStyle;rounded=0;orthogonalLoop=1;jettySize=auto;html=1;entryX=0.5;entryY=0;entryDx=0;entryDy=0;dashed=1;" parent="kBsdiCzwA7r4rEjokHal-1" source="U8if882Ww-JnEzy6yIA2-17" target="U8if882Ww-JnEzy6yIA2-10" edge="1">
          <mxGeometry relative="1" as="geometry" />
        </mxCell>
        <mxCell id="U8if882Ww-JnEzy6yIA2-16" value="&amp;lt;&amp;lt;extend&amp;gt;&amp;gt;" style="edgeLabel;html=1;align=center;verticalAlign=middle;resizable=0;points=[];" parent="U8if882Ww-JnEzy6yIA2-15" vertex="1" connectable="0">
          <mxGeometry x="-0.3541" y="-3" relative="1" as="geometry">
            <mxPoint as="offset" />
          </mxGeometry>
        </mxCell>
        <mxCell id="U8if882Ww-JnEzy6yIA2-17" value="Add new" style="ellipse;whiteSpace=wrap;html=1;" parent="kBsdiCzwA7r4rEjokHal-1" vertex="1">
          <mxGeometry x="312.5" y="180" width="90" height="60" as="geometry" />
        </mxCell>
        <mxCell id="U8if882Ww-JnEzy6yIA2-18" value="" style="endArrow=classic;html=1;rounded=0;dashed=1;exitX=0;exitY=1;exitDx=0;exitDy=0;entryX=1;entryY=0;entryDx=0;entryDy=0;" parent="kBsdiCzwA7r4rEjokHal-1" source="U8if882Ww-JnEzy6yIA2-10" target="U8if882Ww-JnEzy6yIA2-3" edge="1">
          <mxGeometry width="50" height="50" relative="1" as="geometry">
            <mxPoint x="530" y="530" as="sourcePoint" />
            <mxPoint x="580" y="480" as="targetPoint" />
          </mxGeometry>
        </mxCell>
        <mxCell id="U8if882Ww-JnEzy6yIA2-19" value="" style="endArrow=classic;html=1;rounded=0;dashed=1;entryX=1;entryY=0;entryDx=0;entryDy=0;exitX=0;exitY=1;exitDx=0;exitDy=0;" parent="kBsdiCzwA7r4rEjokHal-1" source="U8if882Ww-JnEzy6yIA2-11" target="U8if882Ww-JnEzy6yIA2-10" edge="1">
          <mxGeometry width="50" height="50" relative="1" as="geometry">
            <mxPoint x="437.5" y="210" as="sourcePoint" />
            <mxPoint x="487.5" y="160" as="targetPoint" />
          </mxGeometry>
        </mxCell>
        <mxCell id="U8if882Ww-JnEzy6yIA2-20" value="&amp;lt;&amp;lt;extend&amp;gt;&amp;gt;" style="edgeLabel;html=1;align=center;verticalAlign=middle;resizable=0;points=[];" parent="U8if882Ww-JnEzy6yIA2-19" vertex="1" connectable="0">
          <mxGeometry x="-0.0315" y="4" relative="1" as="geometry">
            <mxPoint as="offset" />
          </mxGeometry>
        </mxCell>
        <mxCell id="U8if882Ww-JnEzy6yIA2-21" value="Plate number" style="ellipse;whiteSpace=wrap;html=1;" parent="kBsdiCzwA7r4rEjokHal-1" vertex="1">
          <mxGeometry x="315" y="70" width="85" height="50" as="geometry" />
        </mxCell>
        <mxCell id="U8if882Ww-JnEzy6yIA2-22" value="Liscence" style="ellipse;whiteSpace=wrap;html=1;" parent="kBsdiCzwA7r4rEjokHal-1" vertex="1">
          <mxGeometry x="410" y="70" width="85" height="50" as="geometry" />
        </mxCell>
        <mxCell id="U8if882Ww-JnEzy6yIA2-23" value="Car&#39;s registeration card" style="ellipse;whiteSpace=wrap;html=1;" parent="kBsdiCzwA7r4rEjokHal-1" vertex="1">
          <mxGeometry x="500" y="70" width="85" height="50" as="geometry" />
        </mxCell>
        <mxCell id="U8if882Ww-JnEzy6yIA2-24" value="" style="endArrow=classic;html=1;rounded=0;dashed=1;exitX=0.5;exitY=1;exitDx=0;exitDy=0;entryX=0.5;entryY=0;entryDx=0;entryDy=0;" parent="kBsdiCzwA7r4rEjokHal-1" source="U8if882Ww-JnEzy6yIA2-21" target="U8if882Ww-JnEzy6yIA2-17" edge="1">
          <mxGeometry width="50" height="50" relative="1" as="geometry">
            <mxPoint x="430" y="190" as="sourcePoint" />
            <mxPoint x="365" y="190" as="targetPoint" />
          </mxGeometry>
        </mxCell>
        <mxCell id="U8if882Ww-JnEzy6yIA2-25" value="&amp;lt;&amp;lt;include&amp;gt;&amp;gt;" style="edgeLabel;html=1;align=center;verticalAlign=middle;resizable=0;points=[];fontSize=9;" parent="U8if882Ww-JnEzy6yIA2-24" vertex="1" connectable="0">
          <mxGeometry x="-0.0094" y="1" relative="1" as="geometry">
            <mxPoint x="-1" as="offset" />
          </mxGeometry>
        </mxCell>
        <mxCell id="U8if882Ww-JnEzy6yIA2-26" value="" style="endArrow=classic;html=1;rounded=0;dashed=1;entryX=0.269;entryY=0.052;entryDx=0;entryDy=0;exitX=0.628;exitY=0.997;exitDx=0;exitDy=0;entryPerimeter=0;exitPerimeter=0;" parent="kBsdiCzwA7r4rEjokHal-1" source="U8if882Ww-JnEzy6yIA2-22" target="U8if882Ww-JnEzy6yIA2-11" edge="1">
          <mxGeometry width="50" height="50" relative="1" as="geometry">
            <mxPoint x="435" y="270" as="sourcePoint" />
            <mxPoint x="485" y="220" as="targetPoint" />
          </mxGeometry>
        </mxCell>
        <mxCell id="U8if882Ww-JnEzy6yIA2-27" value="&amp;lt;&amp;lt;extend&amp;gt;&amp;gt;" style="edgeLabel;html=1;align=center;verticalAlign=middle;resizable=0;points=[];fontSize=7;" parent="U8if882Ww-JnEzy6yIA2-26" vertex="1" connectable="0">
          <mxGeometry x="0.2377" relative="1" as="geometry">
            <mxPoint as="offset" />
          </mxGeometry>
        </mxCell>
        <mxCell id="U8if882Ww-JnEzy6yIA2-28" value="" style="endArrow=classic;html=1;rounded=0;dashed=1;entryX=0.5;entryY=0;entryDx=0;entryDy=0;exitX=0.5;exitY=1;exitDx=0;exitDy=0;" parent="kBsdiCzwA7r4rEjokHal-1" source="U8if882Ww-JnEzy6yIA2-23" target="U8if882Ww-JnEzy6yIA2-11" edge="1">
          <mxGeometry width="50" height="50" relative="1" as="geometry">
            <mxPoint x="435" y="270" as="sourcePoint" />
            <mxPoint x="485" y="220" as="targetPoint" />
          </mxGeometry>
        </mxCell>
        <mxCell id="U8if882Ww-JnEzy6yIA2-29" value="&amp;lt;&amp;lt;extend&amp;gt;&amp;gt;" style="edgeLabel;html=1;align=center;verticalAlign=middle;resizable=0;points=[];fontSize=7;" parent="U8if882Ww-JnEzy6yIA2-28" vertex="1" connectable="0">
          <mxGeometry x="-0.0068" y="1" relative="1" as="geometry">
            <mxPoint as="offset" />
          </mxGeometry>
        </mxCell>
        <mxCell id="U8if882Ww-JnEzy6yIA2-30" value="" style="endArrow=classic;html=1;rounded=0;dashed=1;entryX=0.911;entryY=0.235;entryDx=0;entryDy=0;entryPerimeter=0;exitX=0;exitY=1;exitDx=0;exitDy=0;" parent="kBsdiCzwA7r4rEjokHal-1" source="U8if882Ww-JnEzy6yIA2-23" target="U8if882Ww-JnEzy6yIA2-17" edge="1">
          <mxGeometry width="50" height="50" relative="1" as="geometry">
            <mxPoint x="425" y="190" as="sourcePoint" />
            <mxPoint x="475" y="140" as="targetPoint" />
          </mxGeometry>
        </mxCell>
        <mxCell id="U8if882Ww-JnEzy6yIA2-31" value="&amp;lt;&amp;lt;include&amp;gt;&amp;gt;" style="edgeLabel;html=1;align=center;verticalAlign=middle;resizable=0;points=[];fontSize=8;" parent="U8if882Ww-JnEzy6yIA2-30" vertex="1" connectable="0">
          <mxGeometry x="0.7174" y="-1" relative="1" as="geometry">
            <mxPoint x="9" y="-2" as="offset" />
          </mxGeometry>
        </mxCell>
        <mxCell id="U8if882Ww-JnEzy6yIA2-32" value="" style="endArrow=classic;html=1;rounded=0;dashed=1;entryX=0.628;entryY=0.044;entryDx=0;entryDy=0;entryPerimeter=0;exitX=0.382;exitY=0.99;exitDx=0;exitDy=0;exitPerimeter=0;" parent="kBsdiCzwA7r4rEjokHal-1" source="U8if882Ww-JnEzy6yIA2-22" target="U8if882Ww-JnEzy6yIA2-17" edge="1">
          <mxGeometry width="50" height="50" relative="1" as="geometry">
            <mxPoint x="415" y="170" as="sourcePoint" />
            <mxPoint x="465" y="120" as="targetPoint" />
          </mxGeometry>
        </mxCell>
        <mxCell id="U8if882Ww-JnEzy6yIA2-33" value="&amp;lt;&amp;lt;include&amp;gt;&amp;gt;" style="edgeLabel;html=1;align=center;verticalAlign=middle;resizable=0;points=[];fontSize=8;" parent="U8if882Ww-JnEzy6yIA2-32" vertex="1" connectable="0">
          <mxGeometry x="0.2433" y="1" relative="1" as="geometry">
            <mxPoint as="offset" />
          </mxGeometry>
        </mxCell>
        <mxCell id="U8if882Ww-JnEzy6yIA2-34" value="" style="endArrow=classic;html=1;rounded=0;dashed=1;entryX=0.076;entryY=0.244;entryDx=0;entryDy=0;entryPerimeter=0;" parent="kBsdiCzwA7r4rEjokHal-1" target="U8if882Ww-JnEzy6yIA2-11" edge="1">
          <mxGeometry width="50" height="50" relative="1" as="geometry">
            <mxPoint x="365" y="120" as="sourcePoint" />
            <mxPoint x="285" y="140" as="targetPoint" />
          </mxGeometry>
        </mxCell>
        <mxCell id="U8if882Ww-JnEzy6yIA2-35" value="&amp;lt;&amp;lt;extend&amp;gt;&amp;gt;" style="edgeLabel;html=1;align=center;verticalAlign=middle;resizable=0;points=[];fontSize=7;" parent="U8if882Ww-JnEzy6yIA2-34" vertex="1" connectable="0">
          <mxGeometry x="0.3779" y="-1" relative="1" as="geometry">
            <mxPoint x="10" y="8" as="offset" />
          </mxGeometry>
        </mxCell>
        <mxCell id="U8if882Ww-JnEzy6yIA2-37" value="View un-paid violations" style="ellipse;whiteSpace=wrap;html=1;" parent="kBsdiCzwA7r4rEjokHal-1" vertex="1">
          <mxGeometry x="320" y="730" width="90" height="70" as="geometry" />
        </mxCell>
        <mxCell id="U8if882Ww-JnEzy6yIA2-38" value="" style="endArrow=classic;html=1;rounded=0;dashed=1;exitX=0;exitY=0;exitDx=0;exitDy=0;entryX=1;entryY=1;entryDx=0;entryDy=0;" parent="kBsdiCzwA7r4rEjokHal-1" source="U8if882Ww-JnEzy6yIA2-37" target="U8if882Ww-JnEzy6yIA2-6" edge="1">
          <mxGeometry width="50" height="50" relative="1" as="geometry">
            <mxPoint x="290" y="780" as="sourcePoint" />
            <mxPoint x="380" y="710" as="targetPoint" />
          </mxGeometry>
        </mxCell>
        <mxCell id="U8if882Ww-JnEzy6yIA2-39" value="&amp;lt;&amp;lt;extend&amp;gt;&amp;gt;" style="edgeLabel;html=1;align=center;verticalAlign=middle;resizable=0;points=[];" parent="U8if882Ww-JnEzy6yIA2-38" vertex="1" connectable="0">
          <mxGeometry x="-0.228" y="-1" relative="1" as="geometry">
            <mxPoint as="offset" />
          </mxGeometry>
        </mxCell>
        <mxCell id="U8if882Ww-JnEzy6yIA2-40" value="" style="edgeStyle=orthogonalEdgeStyle;rounded=0;orthogonalLoop=1;jettySize=auto;html=1;dashed=1;fontSize=12;" parent="kBsdiCzwA7r4rEjokHal-1" source="U8if882Ww-JnEzy6yIA2-42" target="U8if882Ww-JnEzy6yIA2-37" edge="1">
          <mxGeometry relative="1" as="geometry" />
        </mxCell>
        <mxCell id="U8if882Ww-JnEzy6yIA2-41" value="&amp;lt;&amp;lt;extend&amp;gt;&amp;gt;" style="edgeLabel;html=1;align=center;verticalAlign=middle;resizable=0;points=[];fontSize=9;" parent="U8if882Ww-JnEzy6yIA2-40" vertex="1" connectable="0">
          <mxGeometry x="-0.1216" y="1" relative="1" as="geometry">
            <mxPoint x="-1" y="-16" as="offset" />
          </mxGeometry>
        </mxCell>
        <mxCell id="U8if882Ww-JnEzy6yIA2-42" value="Object" style="ellipse;whiteSpace=wrap;html=1;" parent="kBsdiCzwA7r4rEjokHal-1" vertex="1">
          <mxGeometry x="465" y="732.5" width="85" height="65" as="geometry" />
        </mxCell>
        <mxCell id="U8if882Ww-JnEzy6yIA2-44" value="" style="endArrow=classic;html=1;rounded=0;dashed=1;entryX=0;entryY=0;entryDx=0;entryDy=0;exitX=1;exitY=1;exitDx=0;exitDy=0;" parent="kBsdiCzwA7r4rEjokHal-1" source="U8if882Ww-JnEzy6yIA2-3" target="U8if882Ww-JnEzy6yIA2-43" edge="1">
          <mxGeometry width="50" height="50" relative="1" as="geometry">
            <mxPoint x="340" y="480" as="sourcePoint" />
            <mxPoint x="390" y="430" as="targetPoint" />
          </mxGeometry>
        </mxCell>
        <mxCell id="U8if882Ww-JnEzy6yIA2-45" value="&amp;lt;&amp;lt;include&amp;gt;&amp;gt;" style="edgeLabel;html=1;align=center;verticalAlign=middle;resizable=0;points=[];" parent="U8if882Ww-JnEzy6yIA2-44" vertex="1" connectable="0">
          <mxGeometry x="-0.0267" y="-2" relative="1" as="geometry">
            <mxPoint as="offset" />
          </mxGeometry>
        </mxCell>
        <mxCell id="U8if882Ww-JnEzy6yIA2-46" value="" style="endArrow=classic;html=1;rounded=0;dashed=1;entryX=0;entryY=1;entryDx=0;entryDy=0;exitX=1;exitY=0;exitDx=0;exitDy=0;" parent="kBsdiCzwA7r4rEjokHal-1" source="U8if882Ww-JnEzy6yIA2-6" target="U8if882Ww-JnEzy6yIA2-43" edge="1">
          <mxGeometry width="50" height="50" relative="1" as="geometry">
            <mxPoint x="280" y="640" as="sourcePoint" />
            <mxPoint x="330" y="590" as="targetPoint" />
          </mxGeometry>
        </mxCell>
        <mxCell id="U8if882Ww-JnEzy6yIA2-47" value="&amp;lt;&amp;lt;include&amp;gt;&amp;gt;" style="edgeLabel;html=1;align=center;verticalAlign=middle;resizable=0;points=[];" parent="U8if882Ww-JnEzy6yIA2-46" vertex="1" connectable="0">
          <mxGeometry x="-0.037" relative="1" as="geometry">
            <mxPoint as="offset" />
          </mxGeometry>
        </mxCell>
        <mxCell id="U8if882Ww-JnEzy6yIA2-48" style="edgeStyle=orthogonalEdgeStyle;rounded=0;orthogonalLoop=1;jettySize=auto;html=1;entryX=0;entryY=0.5;entryDx=0;entryDy=0;dashed=1;" parent="kBsdiCzwA7r4rEjokHal-1" source="U8if882Ww-JnEzy6yIA2-54" target="U8if882Ww-JnEzy6yIA2-6" edge="1">
          <mxGeometry relative="1" as="geometry" />
        </mxCell>
        <mxCell id="U8if882Ww-JnEzy6yIA2-49" value="&amp;lt;&amp;lt;participate&amp;gt;&amp;gt;" style="edgeLabel;html=1;align=center;verticalAlign=middle;resizable=0;points=[];" parent="U8if882Ww-JnEzy6yIA2-48" vertex="1" connectable="0">
          <mxGeometry x="-0.4515" y="2" relative="1" as="geometry">
            <mxPoint x="-1" as="offset" />
          </mxGeometry>
        </mxCell>
        <mxCell id="U8if882Ww-JnEzy6yIA2-50" style="edgeStyle=orthogonalEdgeStyle;rounded=0;orthogonalLoop=1;jettySize=auto;html=1;exitX=1;exitY=0.5;exitDx=0;exitDy=0;exitPerimeter=0;entryX=1;entryY=0.5;entryDx=0;entryDy=0;dashed=1;" parent="kBsdiCzwA7r4rEjokHal-1" source="U8if882Ww-JnEzy6yIA2-54" target="U8if882Ww-JnEzy6yIA2-65" edge="1">
          <mxGeometry relative="1" as="geometry">
            <Array as="points">
              <mxPoint x="1170" y="970" />
              <mxPoint x="1170" y="630" />
              <mxPoint x="1020" y="630" />
            </Array>
          </mxGeometry>
        </mxCell>
        <mxCell id="U8if882Ww-JnEzy6yIA2-51" style="edgeStyle=orthogonalEdgeStyle;rounded=0;orthogonalLoop=1;jettySize=auto;html=1;exitX=1;exitY=0.5;exitDx=0;exitDy=0;exitPerimeter=0;entryX=1;entryY=0.5;entryDx=0;entryDy=0;dashed=1;" parent="kBsdiCzwA7r4rEjokHal-1" source="U8if882Ww-JnEzy6yIA2-54" target="U8if882Ww-JnEzy6yIA2-64" edge="1">
          <mxGeometry relative="1" as="geometry">
            <Array as="points">
              <mxPoint x="1170" y="970" />
              <mxPoint x="1170" y="470" />
              <mxPoint x="1020" y="470" />
            </Array>
          </mxGeometry>
        </mxCell>
        <mxCell id="U8if882Ww-JnEzy6yIA2-52" value="&amp;lt;&amp;lt;participate&amp;gt;&amp;gt;" style="edgeLabel;html=1;align=center;verticalAlign=middle;resizable=0;points=[];" parent="U8if882Ww-JnEzy6yIA2-51" vertex="1" connectable="0">
          <mxGeometry x="-0.4318" y="3" relative="1" as="geometry">
            <mxPoint x="-1" as="offset" />
          </mxGeometry>
        </mxCell>
        <mxCell id="U8if882Ww-JnEzy6yIA2-53" style="edgeStyle=orthogonalEdgeStyle;rounded=0;orthogonalLoop=1;jettySize=auto;html=1;entryX=0;entryY=0.5;entryDx=0;entryDy=0;dashed=1;" parent="kBsdiCzwA7r4rEjokHal-1" source="U8if882Ww-JnEzy6yIA2-54" target="U8if882Ww-JnEzy6yIA2-2" edge="1">
          <mxGeometry relative="1" as="geometry" />
        </mxCell>
        <mxCell id="U8if882Ww-JnEzy6yIA2-54" value="" style="shape=cylinder3;whiteSpace=wrap;html=1;boundedLbl=1;backgroundOutline=1;size=15;fontSize=9;" parent="kBsdiCzwA7r4rEjokHal-1" vertex="1">
          <mxGeometry x="750" y="930" width="60" height="80" as="geometry" />
        </mxCell>
        <mxCell id="U8if882Ww-JnEzy6yIA2-55" style="edgeStyle=orthogonalEdgeStyle;rounded=0;orthogonalLoop=1;jettySize=auto;html=1;entryX=1;entryY=0.5;entryDx=0;entryDy=0;dashed=1;" parent="kBsdiCzwA7r4rEjokHal-1" source="U8if882Ww-JnEzy6yIA2-57" target="U8if882Ww-JnEzy6yIA2-42" edge="1">
          <mxGeometry relative="1" as="geometry" />
        </mxCell>
        <mxCell id="U8if882Ww-JnEzy6yIA2-56" value="&amp;lt;&amp;lt;extend&amp;gt;&amp;gt;" style="edgeLabel;html=1;align=center;verticalAlign=middle;resizable=0;points=[];" parent="U8if882Ww-JnEzy6yIA2-55" vertex="1" connectable="0">
          <mxGeometry x="-0.0657" relative="1" as="geometry">
            <mxPoint as="offset" />
          </mxGeometry>
        </mxCell>
        <mxCell id="U8if882Ww-JnEzy6yIA2-57" value="Send objection" style="ellipse;whiteSpace=wrap;html=1;" parent="kBsdiCzwA7r4rEjokHal-1" vertex="1">
          <mxGeometry x="590" y="685" width="85" height="65" as="geometry" />
        </mxCell>
        <mxCell id="U8if882Ww-JnEzy6yIA2-58" style="edgeStyle=orthogonalEdgeStyle;rounded=0;orthogonalLoop=1;jettySize=auto;html=1;entryX=1;entryY=0.5;entryDx=0;entryDy=0;dashed=1;" parent="kBsdiCzwA7r4rEjokHal-1" source="U8if882Ww-JnEzy6yIA2-60" target="U8if882Ww-JnEzy6yIA2-42" edge="1">
          <mxGeometry relative="1" as="geometry" />
        </mxCell>
        <mxCell id="U8if882Ww-JnEzy6yIA2-59" value="&amp;lt;&amp;lt;extend&amp;gt;&amp;gt;" style="edgeLabel;html=1;align=center;verticalAlign=middle;resizable=0;points=[];" parent="U8if882Ww-JnEzy6yIA2-58" vertex="1" connectable="0">
          <mxGeometry x="-0.1447" y="-1" relative="1" as="geometry">
            <mxPoint as="offset" />
          </mxGeometry>
        </mxCell>
        <mxCell id="U8if882Ww-JnEzy6yIA2-60" value="Cencel objection" style="ellipse;whiteSpace=wrap;html=1;" parent="kBsdiCzwA7r4rEjokHal-1" vertex="1">
          <mxGeometry x="590" y="775" width="95" height="60" as="geometry" />
        </mxCell>
        <mxCell id="U8if882Ww-JnEzy6yIA2-61" value="Actor" style="shape=umlActor;verticalLabelPosition=bottom;verticalAlign=top;html=1;outlineConnect=0;" parent="kBsdiCzwA7r4rEjokHal-1" vertex="1">
          <mxGeometry x="1220" y="450" width="30" height="60" as="geometry" />
        </mxCell>
        <mxCell id="U8if882Ww-JnEzy6yIA2-62" value="Actor" style="shape=umlActor;verticalLabelPosition=bottom;verticalAlign=top;html=1;outlineConnect=0;labelBackgroundColor=none;" parent="kBsdiCzwA7r4rEjokHal-1" vertex="1">
          <mxGeometry x="40" y="545" width="30" height="60" as="geometry" />
        </mxCell>
        <mxCell id="U8if882Ww-JnEzy6yIA2-63" value="####&amp;nbsp;" style="swimlane;whiteSpace=wrap;html=1;" parent="kBsdiCzwA7r4rEjokHal-1" vertex="1">
          <mxGeometry x="115" y="40" width="1035" height="870" as="geometry" />
        </mxCell>
        <mxCell id="U8if882Ww-JnEzy6yIA2-64" value="View pending fines" style="ellipse;whiteSpace=wrap;html=1;" parent="U8if882Ww-JnEzy6yIA2-63" vertex="1">
          <mxGeometry x="785" y="330" width="120" height="80" as="geometry" />
        </mxCell>
        <mxCell id="U8if882Ww-JnEzy6yIA2-65" value="View objection requests" style="ellipse;whiteSpace=wrap;html=1;" parent="U8if882Ww-JnEzy6yIA2-63" vertex="1">
          <mxGeometry x="785" y="545" width="120" height="80" as="geometry" />
        </mxCell>
        <mxCell id="U8if882Ww-JnEzy6yIA2-66" value="Login as Authority" style="ellipse;whiteSpace=wrap;html=1;" parent="U8if882Ww-JnEzy6yIA2-63" vertex="1">
          <mxGeometry x="605" y="440" width="120" height="85" as="geometry" />
        </mxCell>
        <mxCell id="U8if882Ww-JnEzy6yIA2-67" value="" style="endArrow=classic;html=1;rounded=0;dashed=1;entryX=1;entryY=0;entryDx=0;entryDy=0;exitX=0;exitY=1;exitDx=0;exitDy=0;" parent="U8if882Ww-JnEzy6yIA2-63" source="U8if882Ww-JnEzy6yIA2-64" target="U8if882Ww-JnEzy6yIA2-66" edge="1">
          <mxGeometry width="50" height="50" relative="1" as="geometry">
            <mxPoint x="765" y="505" as="sourcePoint" />
            <mxPoint x="815" y="455" as="targetPoint" />
          </mxGeometry>
        </mxCell>
        <mxCell id="U8if882Ww-JnEzy6yIA2-68" value="&amp;lt;&amp;lt;include&amp;gt;&amp;gt;" style="edgeLabel;html=1;align=center;verticalAlign=middle;resizable=0;points=[];" parent="U8if882Ww-JnEzy6yIA2-67" vertex="1" connectable="0">
          <mxGeometry x="0.1169" y="-4" relative="1" as="geometry">
            <mxPoint as="offset" />
          </mxGeometry>
        </mxCell>
        <mxCell id="U8if882Ww-JnEzy6yIA2-69" value="" style="endArrow=classic;html=1;rounded=0;dashed=1;entryX=1;entryY=1;entryDx=0;entryDy=0;exitX=0;exitY=0;exitDx=0;exitDy=0;" parent="U8if882Ww-JnEzy6yIA2-63" source="U8if882Ww-JnEzy6yIA2-65" target="U8if882Ww-JnEzy6yIA2-66" edge="1">
          <mxGeometry width="50" height="50" relative="1" as="geometry">
            <mxPoint x="685" y="605" as="sourcePoint" />
            <mxPoint x="735" y="555" as="targetPoint" />
          </mxGeometry>
        </mxCell>
        <mxCell id="U8if882Ww-JnEzy6yIA2-70" value="&amp;lt;&amp;lt;include&amp;gt;&amp;gt;" style="edgeLabel;html=1;align=center;verticalAlign=middle;resizable=0;points=[];" parent="U8if882Ww-JnEzy6yIA2-69" vertex="1" connectable="0">
          <mxGeometry x="-0.2083" y="-2" relative="1" as="geometry">
            <mxPoint as="offset" />
          </mxGeometry>
        </mxCell>
        <mxCell id="U8if882Ww-JnEzy6yIA2-71" style="edgeStyle=orthogonalEdgeStyle;rounded=0;orthogonalLoop=1;jettySize=auto;html=1;entryX=0;entryY=0;entryDx=0;entryDy=0;dashed=1;" parent="U8if882Ww-JnEzy6yIA2-63" source="U8if882Ww-JnEzy6yIA2-73" target="U8if882Ww-JnEzy6yIA2-64" edge="1">
          <mxGeometry relative="1" as="geometry" />
        </mxCell>
        <mxCell id="U8if882Ww-JnEzy6yIA2-72" value="&amp;lt;&amp;lt;extend&amp;gt;&amp;gt;" style="edgeLabel;html=1;align=center;verticalAlign=middle;resizable=0;points=[];" parent="U8if882Ww-JnEzy6yIA2-71" vertex="1" connectable="0">
          <mxGeometry x="-0.1008" y="-2" relative="1" as="geometry">
            <mxPoint as="offset" />
          </mxGeometry>
        </mxCell>
        <mxCell id="U8if882Ww-JnEzy6yIA2-73" value="Apply the fine" style="ellipse;whiteSpace=wrap;html=1;" parent="U8if882Ww-JnEzy6yIA2-63" vertex="1">
          <mxGeometry x="695" y="195" width="120" height="80" as="geometry" />
        </mxCell>
        <mxCell id="U8if882Ww-JnEzy6yIA2-74" style="edgeStyle=orthogonalEdgeStyle;rounded=0;orthogonalLoop=1;jettySize=auto;html=1;exitX=0.5;exitY=1;exitDx=0;exitDy=0;entryX=1;entryY=0;entryDx=0;entryDy=0;dashed=1;" parent="U8if882Ww-JnEzy6yIA2-63" source="U8if882Ww-JnEzy6yIA2-76" target="U8if882Ww-JnEzy6yIA2-64" edge="1">
          <mxGeometry relative="1" as="geometry" />
        </mxCell>
        <mxCell id="U8if882Ww-JnEzy6yIA2-75" value="&amp;lt;&amp;lt;extend&amp;gt;&amp;gt;" style="edgeLabel;html=1;align=center;verticalAlign=middle;resizable=0;points=[];" parent="U8if882Ww-JnEzy6yIA2-74" vertex="1" connectable="0">
          <mxGeometry x="-0.1882" y="1" relative="1" as="geometry">
            <mxPoint as="offset" />
          </mxGeometry>
        </mxCell>
        <mxCell id="U8if882Ww-JnEzy6yIA2-76" value="Cancel the violation" style="ellipse;whiteSpace=wrap;html=1;" parent="U8if882Ww-JnEzy6yIA2-63" vertex="1">
          <mxGeometry x="865" y="175" width="120" height="80" as="geometry" />
        </mxCell>
        <mxCell id="U8if882Ww-JnEzy6yIA2-77" style="edgeStyle=orthogonalEdgeStyle;rounded=0;orthogonalLoop=1;jettySize=auto;html=1;exitX=0.5;exitY=0;exitDx=0;exitDy=0;entryX=0;entryY=1;entryDx=0;entryDy=0;dashed=1;" parent="U8if882Ww-JnEzy6yIA2-63" source="U8if882Ww-JnEzy6yIA2-79" target="U8if882Ww-JnEzy6yIA2-65" edge="1">
          <mxGeometry relative="1" as="geometry" />
        </mxCell>
        <mxCell id="U8if882Ww-JnEzy6yIA2-78" value="&amp;lt;&amp;lt;extend&amp;gt;&amp;gt;" style="edgeLabel;html=1;align=center;verticalAlign=middle;resizable=0;points=[];" parent="U8if882Ww-JnEzy6yIA2-77" vertex="1" connectable="0">
          <mxGeometry x="-0.2302" y="4" relative="1" as="geometry">
            <mxPoint as="offset" />
          </mxGeometry>
        </mxCell>
        <mxCell id="U8if882Ww-JnEzy6yIA2-79" value="Remove the Fine" style="ellipse;whiteSpace=wrap;html=1;" parent="U8if882Ww-JnEzy6yIA2-63" vertex="1">
          <mxGeometry x="655" y="685" width="120" height="80" as="geometry" />
        </mxCell>
        <mxCell id="U8if882Ww-JnEzy6yIA2-80" style="edgeStyle=orthogonalEdgeStyle;rounded=0;orthogonalLoop=1;jettySize=auto;html=1;exitX=0.5;exitY=0;exitDx=0;exitDy=0;entryX=1;entryY=1;entryDx=0;entryDy=0;dashed=1;" parent="U8if882Ww-JnEzy6yIA2-63" source="U8if882Ww-JnEzy6yIA2-82" target="U8if882Ww-JnEzy6yIA2-65" edge="1">
          <mxGeometry relative="1" as="geometry" />
        </mxCell>
        <mxCell id="U8if882Ww-JnEzy6yIA2-81" value="&amp;lt;&amp;lt;extend&amp;gt;&amp;gt;" style="edgeLabel;html=1;align=center;verticalAlign=middle;resizable=0;points=[];" parent="U8if882Ww-JnEzy6yIA2-80" vertex="1" connectable="0">
          <mxGeometry x="-0.0352" relative="1" as="geometry">
            <mxPoint as="offset" />
          </mxGeometry>
        </mxCell>
        <mxCell id="U8if882Ww-JnEzy6yIA2-82" value="Reject a request" style="ellipse;whiteSpace=wrap;html=1;" parent="U8if882Ww-JnEzy6yIA2-63" vertex="1">
          <mxGeometry x="905" y="685" width="120" height="80" as="geometry" />
        </mxCell>
        <mxCell id="U8if882Ww-JnEzy6yIA2-83" value="Fine amount" style="ellipse;whiteSpace=wrap;html=1;" parent="U8if882Ww-JnEzy6yIA2-63" vertex="1">
          <mxGeometry x="635" y="65" width="90" height="50" as="geometry" />
        </mxCell>
        <mxCell id="U8if882Ww-JnEzy6yIA2-84" value="Black points" style="ellipse;whiteSpace=wrap;html=1;fontSize=12;" parent="U8if882Ww-JnEzy6yIA2-63" vertex="1">
          <mxGeometry x="785" y="60" width="90" height="55" as="geometry" />
        </mxCell>
        <mxCell id="U8if882Ww-JnEzy6yIA2-85" value="" style="endArrow=classic;html=1;rounded=0;dashed=1;fontSize=12;entryX=0;entryY=0;entryDx=0;entryDy=0;exitX=0.5;exitY=1;exitDx=0;exitDy=0;" parent="U8if882Ww-JnEzy6yIA2-63" source="U8if882Ww-JnEzy6yIA2-83" target="U8if882Ww-JnEzy6yIA2-73" edge="1">
          <mxGeometry width="50" height="50" relative="1" as="geometry">
            <mxPoint x="655" y="225" as="sourcePoint" />
            <mxPoint x="705" y="175" as="targetPoint" />
          </mxGeometry>
        </mxCell>
        <mxCell id="U8if882Ww-JnEzy6yIA2-86" value="&amp;lt;&amp;lt;include&amp;gt;&amp;gt;" style="edgeLabel;html=1;align=center;verticalAlign=middle;resizable=0;points=[];fontSize=12;" parent="U8if882Ww-JnEzy6yIA2-85" vertex="1" connectable="0">
          <mxGeometry x="-0.0427" y="-5" relative="1" as="geometry">
            <mxPoint as="offset" />
          </mxGeometry>
        </mxCell>
        <mxCell id="U8if882Ww-JnEzy6yIA2-87" value="" style="endArrow=classic;html=1;rounded=0;dashed=1;fontSize=12;entryX=1;entryY=0;entryDx=0;entryDy=0;exitX=0.5;exitY=1;exitDx=0;exitDy=0;" parent="U8if882Ww-JnEzy6yIA2-63" source="U8if882Ww-JnEzy6yIA2-84" target="U8if882Ww-JnEzy6yIA2-73" edge="1">
          <mxGeometry width="50" height="50" relative="1" as="geometry">
            <mxPoint x="735" y="165" as="sourcePoint" />
            <mxPoint x="785" y="115" as="targetPoint" />
          </mxGeometry>
        </mxCell>
        <mxCell id="U8if882Ww-JnEzy6yIA2-88" value="&amp;lt;&amp;lt;include&amp;gt;&amp;gt;" style="edgeLabel;html=1;align=center;verticalAlign=middle;resizable=0;points=[];fontSize=12;" parent="U8if882Ww-JnEzy6yIA2-87" vertex="1" connectable="0">
          <mxGeometry x="-0.1321" y="-6" relative="1" as="geometry">
            <mxPoint as="offset" />
          </mxGeometry>
        </mxCell>
        <mxCell id="U8if882Ww-JnEzy6yIA2-43" value="Login As student" style="ellipse;whiteSpace=wrap;html=1;" parent="U8if882Ww-JnEzy6yIA2-63" vertex="1">
          <mxGeometry x="465" y="450" width="130" height="90" as="geometry" />
        </mxCell>
        <mxCell id="U8if882Ww-JnEzy6yIA2-9" value="View black points" style="ellipse;whiteSpace=wrap;html=1;" parent="U8if882Ww-JnEzy6yIA2-63" vertex="1">
          <mxGeometry x="155" y="755" width="90" height="60" as="geometry" />
        </mxCell>
        <mxCell id="vtPs7HjtoRHT-j0-lD_K-0" value="" style="endArrow=classic;html=1;rounded=0;dashed=1;exitX=0;exitY=0;exitDx=0;exitDy=0;" parent="U8if882Ww-JnEzy6yIA2-63" source="U8if882Ww-JnEzy6yIA2-9" edge="1">
          <mxGeometry width="50" height="50" relative="1" as="geometry">
            <mxPoint x="215" y="850" as="sourcePoint" />
            <mxPoint x="135" y="670" as="targetPoint" />
          </mxGeometry>
        </mxCell>
        <mxCell id="vtPs7HjtoRHT-j0-lD_K-1" value="&amp;lt;&amp;lt;extend&amp;gt;&amp;gt;" style="edgeLabel;html=1;align=center;verticalAlign=middle;resizable=0;points=[];" parent="vtPs7HjtoRHT-j0-lD_K-0" vertex="1" connectable="0">
          <mxGeometry x="-0.0201" y="1" relative="1" as="geometry">
            <mxPoint x="4" y="17" as="offset" />
          </mxGeometry>
        </mxCell>
        <mxCell id="U8if882Ww-JnEzy6yIA2-36" value="view paid violations" style="ellipse;whiteSpace=wrap;html=1;" parent="U8if882Ww-JnEzy6yIA2-63" vertex="1">
          <mxGeometry x="55" y="755" width="90" height="70" as="geometry" />
        </mxCell>
        <mxCell id="U8if882Ww-JnEzy6yIA2-92" value="" style="endArrow=classic;html=1;rounded=0;dashed=1;entryX=0;entryY=0.5;entryDx=0;entryDy=0;exitX=1;exitY=0.3333333333333333;exitDx=0;exitDy=0;exitPerimeter=0;" parent="kBsdiCzwA7r4rEjokHal-1" source="U8if882Ww-JnEzy6yIA2-62" target="U8if882Ww-JnEzy6yIA2-3" edge="1">
          <mxGeometry width="50" height="50" relative="1" as="geometry">
            <mxPoint x="70" y="570" as="sourcePoint" />
            <mxPoint x="120" y="520" as="targetPoint" />
          </mxGeometry>
        </mxCell>
        <mxCell id="U8if882Ww-JnEzy6yIA2-93" value="" style="endArrow=classic;html=1;rounded=0;dashed=1;exitX=1;exitY=0.3333333333333333;exitDx=0;exitDy=0;exitPerimeter=0;" parent="kBsdiCzwA7r4rEjokHal-1" source="U8if882Ww-JnEzy6yIA2-62" edge="1">
          <mxGeometry width="50" height="50" relative="1" as="geometry">
            <mxPoint x="80" y="630" as="sourcePoint" />
            <mxPoint x="180" y="650" as="targetPoint" />
          </mxGeometry>
        </mxCell>
        <mxCell id="U8if882Ww-JnEzy6yIA2-94" value="" style="endArrow=classic;html=1;rounded=0;dashed=1;exitX=1;exitY=0.3333333333333333;exitDx=0;exitDy=0;exitPerimeter=0;" parent="kBsdiCzwA7r4rEjokHal-1" source="U8if882Ww-JnEzy6yIA2-62" edge="1">
          <mxGeometry width="50" height="50" relative="1" as="geometry">
            <mxPoint x="110" y="590" as="sourcePoint" />
            <mxPoint x="180" y="560" as="targetPoint" />
          </mxGeometry>
        </mxCell>
        <mxCell id="U8if882Ww-JnEzy6yIA2-95" value="" style="endArrow=classic;html=1;rounded=0;dashed=1;exitX=0;exitY=0.3333333333333333;exitDx=0;exitDy=0;exitPerimeter=0;entryX=1;entryY=0;entryDx=0;entryDy=0;" parent="kBsdiCzwA7r4rEjokHal-1" source="U8if882Ww-JnEzy6yIA2-61" target="U8if882Ww-JnEzy6yIA2-65" edge="1">
          <mxGeometry width="50" height="50" relative="1" as="geometry">
            <mxPoint x="920" y="545" as="sourcePoint" />
            <mxPoint x="1020" y="555" as="targetPoint" />
          </mxGeometry>
        </mxCell>
        <mxCell id="U8if882Ww-JnEzy6yIA2-96" value="" style="endArrow=classic;html=1;rounded=0;dashed=1;exitX=0;exitY=0.3333333333333333;exitDx=0;exitDy=0;exitPerimeter=0;entryX=1;entryY=1;entryDx=0;entryDy=0;" parent="kBsdiCzwA7r4rEjokHal-1" source="U8if882Ww-JnEzy6yIA2-61" target="U8if882Ww-JnEzy6yIA2-64" edge="1">
          <mxGeometry width="50" height="50" relative="1" as="geometry">
            <mxPoint x="970" y="475" as="sourcePoint" />
            <mxPoint x="1020" y="375" as="targetPoint" />
          </mxGeometry>
        </mxCell>
        <mxCell id="U8if882Ww-JnEzy6yIA2-97" value="Student" style="text;html=1;align=center;verticalAlign=middle;resizable=0;points=[];autosize=1;strokeColor=none;fillColor=none;labelBackgroundColor=default;" parent="kBsdiCzwA7r4rEjokHal-1" vertex="1">
          <mxGeometry x="25" y="605" width="60" height="30" as="geometry" />
        </mxCell>
        <mxCell id="U8if882Ww-JnEzy6yIA2-100" value="Administration&amp;nbsp;" style="text;html=1;align=center;verticalAlign=middle;whiteSpace=wrap;rounded=0;fillColor=default;" parent="kBsdiCzwA7r4rEjokHal-1" vertex="1">
          <mxGeometry x="1205" y="510" width="60" height="30" as="geometry" />
        </mxCell>
      </root>
    </mxGraphModel>
  </diagram>
  <diagram id="aGM7EeF0TcpiKYhTvGTF" name="Log-in">
    <mxGraphModel dx="832" dy="652" grid="1" gridSize="10" guides="1" tooltips="1" connect="1" arrows="1" fold="1" page="1" pageScale="1" pageWidth="850" pageHeight="1100" math="0" shadow="0">
      <root>
        <mxCell id="0" />
        <mxCell id="1" parent="0" />
        <mxCell id="9pIVO09RBlTZqWtcsEFP-2" value="Application" style="rounded=1;whiteSpace=wrap;html=1;" parent="1" vertex="1">
          <mxGeometry x="365" y="460" width="120" height="60" as="geometry" />
        </mxCell>
        <mxCell id="9pIVO09RBlTZqWtcsEFP-3" value="Backend" style="rounded=1;whiteSpace=wrap;html=1;" parent="1" vertex="1">
          <mxGeometry x="560" y="460" width="120" height="60" as="geometry" />
        </mxCell>
        <mxCell id="9pIVO09RBlTZqWtcsEFP-5" value="" style="endArrow=none;dashed=1;html=1;rounded=0;" parent="1" edge="1">
          <mxGeometry width="50" height="50" relative="1" as="geometry">
            <mxPoint x="240" y="910" as="sourcePoint" />
            <mxPoint x="240" y="510" as="targetPoint" />
          </mxGeometry>
        </mxCell>
        <mxCell id="9pIVO09RBlTZqWtcsEFP-6" value="student" style="shape=umlActor;verticalLabelPosition=bottom;verticalAlign=top;html=1;outlineConnect=0;" parent="1" vertex="1">
          <mxGeometry x="220" y="440" width="30" height="60" as="geometry" />
        </mxCell>
        <mxCell id="9pIVO09RBlTZqWtcsEFP-7" value="" style="endArrow=none;dashed=1;html=1;rounded=0;" parent="1" edge="1">
          <mxGeometry width="50" height="50" relative="1" as="geometry">
            <mxPoint x="425" y="910" as="sourcePoint" />
            <mxPoint x="425" y="520" as="targetPoint" />
          </mxGeometry>
        </mxCell>
        <mxCell id="9pIVO09RBlTZqWtcsEFP-8" value="" style="endArrow=none;dashed=1;html=1;rounded=0;" parent="1" edge="1">
          <mxGeometry width="50" height="50" relative="1" as="geometry">
            <mxPoint x="620" y="910" as="sourcePoint" />
            <mxPoint x="619.5" y="520" as="targetPoint" />
          </mxGeometry>
        </mxCell>
        <mxCell id="9pIVO09RBlTZqWtcsEFP-11" value="" style="endArrow=classic;html=1;rounded=0;" parent="1" edge="1">
          <mxGeometry width="50" height="50" relative="1" as="geometry">
            <mxPoint x="250" y="580" as="sourcePoint" />
            <mxPoint x="420" y="580" as="targetPoint" />
          </mxGeometry>
        </mxCell>
        <mxCell id="9pIVO09RBlTZqWtcsEFP-23" value="login_button()" style="edgeLabel;html=1;align=center;verticalAlign=middle;resizable=0;points=[];" parent="9pIVO09RBlTZqWtcsEFP-11" vertex="1" connectable="0">
          <mxGeometry x="-0.2727" y="-1" relative="1" as="geometry">
            <mxPoint x="8" y="-11" as="offset" />
          </mxGeometry>
        </mxCell>
        <mxCell id="9pIVO09RBlTZqWtcsEFP-12" value="" style="endArrow=classic;html=1;rounded=0;" parent="1" edge="1">
          <mxGeometry width="50" height="50" relative="1" as="geometry">
            <mxPoint x="425" y="600" as="sourcePoint" />
            <mxPoint x="615" y="600" as="targetPoint" />
          </mxGeometry>
        </mxCell>
        <mxCell id="9pIVO09RBlTZqWtcsEFP-24" value="user_login(id,password)" style="edgeLabel;html=1;align=center;verticalAlign=middle;resizable=0;points=[];" parent="9pIVO09RBlTZqWtcsEFP-12" vertex="1" connectable="0">
          <mxGeometry x="-0.265" y="1" relative="1" as="geometry">
            <mxPoint x="25" y="-9" as="offset" />
          </mxGeometry>
        </mxCell>
        <mxCell id="9pIVO09RBlTZqWtcsEFP-27" value="Alt" style="shape=umlFrame;whiteSpace=wrap;html=1;pointerEvents=0;fontSize=12;" parent="1" vertex="1">
          <mxGeometry x="150" y="680" width="500" height="210" as="geometry" />
        </mxCell>
        <mxCell id="9pIVO09RBlTZqWtcsEFP-29" value="" style="rounded=0;whiteSpace=wrap;html=1;fontSize=12;" parent="1" vertex="1">
          <mxGeometry x="620" y="610" width="30" height="30" as="geometry" />
        </mxCell>
        <mxCell id="9pIVO09RBlTZqWtcsEFP-30" value="Verify_user" style="text;html=1;align=center;verticalAlign=middle;resizable=0;points=[];autosize=1;strokeColor=none;fillColor=none;fontSize=12;" parent="1" vertex="1">
          <mxGeometry x="650" y="610" width="80" height="30" as="geometry" />
        </mxCell>
        <mxCell id="9pIVO09RBlTZqWtcsEFP-31" value="" style="endArrow=none;dashed=1;html=1;dashPattern=1 3;strokeWidth=2;rounded=0;fontSize=12;entryX=1.002;entryY=0.467;entryDx=0;entryDy=0;entryPerimeter=0;exitX=-0.003;exitY=0.47;exitDx=0;exitDy=0;exitPerimeter=0;" parent="1" source="9pIVO09RBlTZqWtcsEFP-27" target="9pIVO09RBlTZqWtcsEFP-27" edge="1">
          <mxGeometry width="50" height="50" relative="1" as="geometry">
            <mxPoint x="10" y="840" as="sourcePoint" />
            <mxPoint x="60" y="790" as="targetPoint" />
          </mxGeometry>
        </mxCell>
        <mxCell id="9pIVO09RBlTZqWtcsEFP-32" value="[if account valid]" style="text;html=1;align=center;verticalAlign=middle;resizable=0;points=[];autosize=1;strokeColor=none;fillColor=none;fontSize=10;" parent="1" vertex="1">
          <mxGeometry x="140" y="710" width="100" height="30" as="geometry" />
        </mxCell>
        <mxCell id="9pIVO09RBlTZqWtcsEFP-34" value="[else]" style="text;html=1;align=center;verticalAlign=middle;resizable=0;points=[];autosize=1;strokeColor=none;fillColor=none;fontSize=9;" parent="1" vertex="1">
          <mxGeometry x="155" y="785" width="40" height="20" as="geometry" />
        </mxCell>
        <mxCell id="9pIVO09RBlTZqWtcsEFP-37" value="" style="endArrow=classic;html=1;rounded=0;fontSize=11;dashed=1;" parent="1" edge="1">
          <mxGeometry width="50" height="50" relative="1" as="geometry">
            <mxPoint x="620" y="700" as="sourcePoint" />
            <mxPoint x="430" y="700" as="targetPoint" />
          </mxGeometry>
        </mxCell>
        <mxCell id="9pIVO09RBlTZqWtcsEFP-38" value="account information" style="edgeLabel;html=1;align=center;verticalAlign=middle;resizable=0;points=[];fontSize=11;" parent="9pIVO09RBlTZqWtcsEFP-37" vertex="1" connectable="0">
          <mxGeometry x="0.1033" y="-2" relative="1" as="geometry">
            <mxPoint x="5" y="22" as="offset" />
          </mxGeometry>
        </mxCell>
        <mxCell id="9pIVO09RBlTZqWtcsEFP-39" value="" style="endArrow=classic;html=1;rounded=0;fontSize=11;dashed=1;" parent="1" edge="1">
          <mxGeometry width="50" height="50" relative="1" as="geometry">
            <mxPoint x="420" y="730" as="sourcePoint" />
            <mxPoint x="240" y="730" as="targetPoint" />
          </mxGeometry>
        </mxCell>
        <mxCell id="9pIVO09RBlTZqWtcsEFP-40" value="display_student_main_page()" style="edgeLabel;html=1;align=center;verticalAlign=middle;resizable=0;points=[];fontSize=11;" parent="9pIVO09RBlTZqWtcsEFP-39" vertex="1" connectable="0">
          <mxGeometry x="0.2839" y="2" relative="1" as="geometry">
            <mxPoint x="22" y="8" as="offset" />
          </mxGeometry>
        </mxCell>
        <mxCell id="9pIVO09RBlTZqWtcsEFP-41" value="" style="endArrow=classic;html=1;rounded=0;fontSize=11;dashed=1;" parent="1" edge="1">
          <mxGeometry width="50" height="50" relative="1" as="geometry">
            <mxPoint x="615" y="800" as="sourcePoint" />
            <mxPoint x="425" y="800" as="targetPoint" />
          </mxGeometry>
        </mxCell>
        <mxCell id="9pIVO09RBlTZqWtcsEFP-42" value="Error()" style="edgeLabel;html=1;align=center;verticalAlign=middle;resizable=0;points=[];fontSize=11;" parent="9pIVO09RBlTZqWtcsEFP-41" vertex="1" connectable="0">
          <mxGeometry x="0.1033" y="-2" relative="1" as="geometry">
            <mxPoint x="5" y="22" as="offset" />
          </mxGeometry>
        </mxCell>
        <mxCell id="9pIVO09RBlTZqWtcsEFP-43" value="" style="endArrow=classic;html=1;rounded=0;fontSize=11;dashed=1;" parent="1" edge="1">
          <mxGeometry width="50" height="50" relative="1" as="geometry">
            <mxPoint x="425" y="820" as="sourcePoint" />
            <mxPoint x="235" y="820" as="targetPoint" />
          </mxGeometry>
        </mxCell>
        <mxCell id="9pIVO09RBlTZqWtcsEFP-44" value="Display_error_msg()" style="edgeLabel;html=1;align=center;verticalAlign=middle;resizable=0;points=[];fontSize=11;" parent="9pIVO09RBlTZqWtcsEFP-43" vertex="1" connectable="0">
          <mxGeometry x="0.1033" y="-2" relative="1" as="geometry">
            <mxPoint x="5" y="22" as="offset" />
          </mxGeometry>
        </mxCell>
      </root>
    </mxGraphModel>
  </diagram>
  <diagram id="fP8iTHUkJtfCC0fxnfRA" name="available parkings">
    <mxGraphModel dx="832" dy="652" grid="1" gridSize="10" guides="1" tooltips="1" connect="1" arrows="1" fold="1" page="1" pageScale="1" pageWidth="850" pageHeight="1100" math="0" shadow="0">
      <root>
        <mxCell id="0" />
        <mxCell id="1" parent="0" />
        <mxCell id="TOJwzpfKawMFEAbBbnDy-1" value="Application" style="rounded=1;whiteSpace=wrap;html=1;" parent="1" vertex="1">
          <mxGeometry x="355" y="140" width="120" height="60" as="geometry" />
        </mxCell>
        <mxCell id="TOJwzpfKawMFEAbBbnDy-2" value="Backend" style="rounded=1;whiteSpace=wrap;html=1;" parent="1" vertex="1">
          <mxGeometry x="550" y="140" width="120" height="60" as="geometry" />
        </mxCell>
        <mxCell id="TOJwzpfKawMFEAbBbnDy-3" value="" style="endArrow=none;dashed=1;html=1;rounded=0;" parent="1" edge="1">
          <mxGeometry width="50" height="50" relative="1" as="geometry">
            <mxPoint x="230" y="440" as="sourcePoint" />
            <mxPoint x="230" y="190" as="targetPoint" />
          </mxGeometry>
        </mxCell>
        <mxCell id="TOJwzpfKawMFEAbBbnDy-4" value="student" style="shape=umlActor;verticalLabelPosition=bottom;verticalAlign=top;html=1;outlineConnect=0;" parent="1" vertex="1">
          <mxGeometry x="210" y="120" width="30" height="60" as="geometry" />
        </mxCell>
        <mxCell id="TOJwzpfKawMFEAbBbnDy-5" value="" style="endArrow=none;dashed=1;html=1;rounded=0;" parent="1" edge="1">
          <mxGeometry width="50" height="50" relative="1" as="geometry">
            <mxPoint x="415" y="440" as="sourcePoint" />
            <mxPoint x="415" y="200" as="targetPoint" />
          </mxGeometry>
        </mxCell>
        <mxCell id="TOJwzpfKawMFEAbBbnDy-6" value="" style="endArrow=none;dashed=1;html=1;rounded=0;" parent="1" edge="1">
          <mxGeometry width="50" height="50" relative="1" as="geometry">
            <mxPoint x="610" y="440" as="sourcePoint" />
            <mxPoint x="609.5" y="200" as="targetPoint" />
          </mxGeometry>
        </mxCell>
        <mxCell id="TOJwzpfKawMFEAbBbnDy-7" value="" style="endArrow=classic;html=1;rounded=0;" parent="1" edge="1">
          <mxGeometry width="50" height="50" relative="1" as="geometry">
            <mxPoint x="230" y="260" as="sourcePoint" />
            <mxPoint x="410" y="260" as="targetPoint" />
          </mxGeometry>
        </mxCell>
        <mxCell id="BuZYFhV-M7OxicF2pxbt-2" value="View_available_parkings()" style="edgeLabel;html=1;align=center;verticalAlign=middle;resizable=0;points=[];" parent="TOJwzpfKawMFEAbBbnDy-7" vertex="1" connectable="0">
          <mxGeometry x="0.1371" y="-4" relative="1" as="geometry">
            <mxPoint x="-12" y="16" as="offset" />
          </mxGeometry>
        </mxCell>
        <mxCell id="TOJwzpfKawMFEAbBbnDy-9" value="" style="endArrow=classic;html=1;rounded=0;" parent="1" edge="1">
          <mxGeometry width="50" height="50" relative="1" as="geometry">
            <mxPoint x="415" y="280" as="sourcePoint" />
            <mxPoint x="605" y="280" as="targetPoint" />
          </mxGeometry>
        </mxCell>
        <mxCell id="BuZYFhV-M7OxicF2pxbt-3" value="Request_parking_info()" style="edgeLabel;html=1;align=center;verticalAlign=middle;resizable=0;points=[];" parent="TOJwzpfKawMFEAbBbnDy-9" vertex="1" connectable="0">
          <mxGeometry x="0.051" y="-2" relative="1" as="geometry">
            <mxPoint y="8" as="offset" />
          </mxGeometry>
        </mxCell>
        <mxCell id="TOJwzpfKawMFEAbBbnDy-21" value="" style="endArrow=classic;html=1;rounded=0;fontSize=11;dashed=1;" parent="1" edge="1">
          <mxGeometry width="50" height="50" relative="1" as="geometry">
            <mxPoint x="605" y="330" as="sourcePoint" />
            <mxPoint x="415" y="330" as="targetPoint" />
          </mxGeometry>
        </mxCell>
        <mxCell id="TOJwzpfKawMFEAbBbnDy-22" value="parkings information" style="edgeLabel;html=1;align=center;verticalAlign=middle;resizable=0;points=[];fontSize=11;" parent="TOJwzpfKawMFEAbBbnDy-21" vertex="1" connectable="0">
          <mxGeometry x="0.1033" y="-2" relative="1" as="geometry">
            <mxPoint x="5" y="22" as="offset" />
          </mxGeometry>
        </mxCell>
        <mxCell id="TOJwzpfKawMFEAbBbnDy-23" value="" style="endArrow=classic;html=1;rounded=0;fontSize=11;dashed=1;" parent="1" edge="1">
          <mxGeometry width="50" height="50" relative="1" as="geometry">
            <mxPoint x="415" y="350" as="sourcePoint" />
            <mxPoint x="225" y="350" as="targetPoint" />
          </mxGeometry>
        </mxCell>
        <mxCell id="TOJwzpfKawMFEAbBbnDy-24" value="Display_available_parkings()" style="edgeLabel;html=1;align=center;verticalAlign=middle;resizable=0;points=[];fontSize=11;" parent="TOJwzpfKawMFEAbBbnDy-23" vertex="1" connectable="0">
          <mxGeometry x="0.1033" y="-2" relative="1" as="geometry">
            <mxPoint x="5" y="22" as="offset" />
          </mxGeometry>
        </mxCell>
      </root>
    </mxGraphModel>
  </diagram>
  <diagram id="Z163bSBvHzTnCdlwa2-p" name="Violation records">
    <mxGraphModel dx="832" dy="652" grid="1" gridSize="10" guides="1" tooltips="1" connect="1" arrows="1" fold="1" page="1" pageScale="1" pageWidth="850" pageHeight="1100" math="0" shadow="0">
      <root>
        <mxCell id="0" />
        <mxCell id="1" parent="0" />
        <mxCell id="NrKp90UM7LV7Y88kUq2S-1" value="Application" style="rounded=1;whiteSpace=wrap;html=1;" parent="1" vertex="1">
          <mxGeometry x="325" y="110" width="120" height="60" as="geometry" />
        </mxCell>
        <mxCell id="NrKp90UM7LV7Y88kUq2S-2" value="Backend" style="rounded=1;whiteSpace=wrap;html=1;" parent="1" vertex="1">
          <mxGeometry x="520" y="110" width="120" height="60" as="geometry" />
        </mxCell>
        <mxCell id="NrKp90UM7LV7Y88kUq2S-3" value="" style="endArrow=none;dashed=1;html=1;rounded=0;" parent="1" edge="1">
          <mxGeometry width="50" height="50" relative="1" as="geometry">
            <mxPoint x="200" y="360" as="sourcePoint" />
            <mxPoint x="200" y="160" as="targetPoint" />
          </mxGeometry>
        </mxCell>
        <mxCell id="NrKp90UM7LV7Y88kUq2S-4" value="student" style="shape=umlActor;verticalLabelPosition=bottom;verticalAlign=top;html=1;outlineConnect=0;" parent="1" vertex="1">
          <mxGeometry x="180" y="90" width="30" height="60" as="geometry" />
        </mxCell>
        <mxCell id="NrKp90UM7LV7Y88kUq2S-5" value="" style="endArrow=none;dashed=1;html=1;rounded=0;" parent="1" edge="1">
          <mxGeometry width="50" height="50" relative="1" as="geometry">
            <mxPoint x="380" y="360" as="sourcePoint" />
            <mxPoint x="385" y="170" as="targetPoint" />
          </mxGeometry>
        </mxCell>
        <mxCell id="NrKp90UM7LV7Y88kUq2S-6" value="" style="endArrow=none;dashed=1;html=1;rounded=0;" parent="1" edge="1">
          <mxGeometry width="50" height="50" relative="1" as="geometry">
            <mxPoint x="580" y="360" as="sourcePoint" />
            <mxPoint x="579.5" y="170" as="targetPoint" />
          </mxGeometry>
        </mxCell>
        <mxCell id="NrKp90UM7LV7Y88kUq2S-7" value="" style="endArrow=classic;html=1;rounded=0;" parent="1" edge="1">
          <mxGeometry width="50" height="50" relative="1" as="geometry">
            <mxPoint x="210" y="230" as="sourcePoint" />
            <mxPoint x="380" y="230" as="targetPoint" />
          </mxGeometry>
        </mxCell>
        <mxCell id="NrKp90UM7LV7Y88kUq2S-8" value="view_hiolations_history()" style="edgeLabel;html=1;align=center;verticalAlign=middle;resizable=0;points=[];" parent="NrKp90UM7LV7Y88kUq2S-7" vertex="1" connectable="0">
          <mxGeometry x="-0.2727" y="-1" relative="1" as="geometry">
            <mxPoint x="8" y="-11" as="offset" />
          </mxGeometry>
        </mxCell>
        <mxCell id="NrKp90UM7LV7Y88kUq2S-9" value="" style="endArrow=classic;html=1;rounded=0;" parent="1" edge="1">
          <mxGeometry width="50" height="50" relative="1" as="geometry">
            <mxPoint x="385" y="250" as="sourcePoint" />
            <mxPoint x="575" y="250" as="targetPoint" />
          </mxGeometry>
        </mxCell>
        <mxCell id="NrKp90UM7LV7Y88kUq2S-10" value="Request_violation_records()" style="edgeLabel;html=1;align=center;verticalAlign=middle;resizable=0;points=[];" parent="NrKp90UM7LV7Y88kUq2S-9" vertex="1" connectable="0">
          <mxGeometry x="-0.265" y="1" relative="1" as="geometry">
            <mxPoint x="25" y="-9" as="offset" />
          </mxGeometry>
        </mxCell>
        <mxCell id="NrKp90UM7LV7Y88kUq2S-12" value="" style="rounded=0;whiteSpace=wrap;html=1;fontSize=12;" parent="1" vertex="1">
          <mxGeometry x="580" y="260" width="30" height="30" as="geometry" />
        </mxCell>
        <mxCell id="NrKp90UM7LV7Y88kUq2S-13" value="Retrieve records" style="text;html=1;align=center;verticalAlign=middle;resizable=0;points=[];autosize=1;strokeColor=none;fillColor=none;fontSize=12;" parent="1" vertex="1">
          <mxGeometry x="600" y="260" width="110" height="30" as="geometry" />
        </mxCell>
        <mxCell id="ZgrkfPgzlvW_9WwfwClO-1" value="" style="endArrow=classic;html=1;rounded=0;dashed=1;" parent="1" edge="1">
          <mxGeometry width="50" height="50" relative="1" as="geometry">
            <mxPoint x="580" y="300" as="sourcePoint" />
            <mxPoint x="390" y="300" as="targetPoint" />
          </mxGeometry>
        </mxCell>
        <mxCell id="ZgrkfPgzlvW_9WwfwClO-3" value="Black points, paid/unpaid violations" style="edgeLabel;html=1;align=center;verticalAlign=middle;resizable=0;points=[];" parent="ZgrkfPgzlvW_9WwfwClO-1" vertex="1" connectable="0">
          <mxGeometry x="0.0099" y="-2" relative="1" as="geometry">
            <mxPoint x="6" y="22" as="offset" />
          </mxGeometry>
        </mxCell>
        <mxCell id="ZgrkfPgzlvW_9WwfwClO-4" value="" style="endArrow=classic;html=1;rounded=0;dashed=1;" parent="1" edge="1">
          <mxGeometry width="50" height="50" relative="1" as="geometry">
            <mxPoint x="380" y="330" as="sourcePoint" />
            <mxPoint x="210" y="330" as="targetPoint" />
            <Array as="points">
              <mxPoint x="290" y="330" />
            </Array>
          </mxGeometry>
        </mxCell>
        <mxCell id="ZgrkfPgzlvW_9WwfwClO-5" value="Display records()" style="edgeLabel;html=1;align=center;verticalAlign=middle;resizable=0;points=[];" parent="ZgrkfPgzlvW_9WwfwClO-4" vertex="1" connectable="0">
          <mxGeometry x="0.0093" relative="1" as="geometry">
            <mxPoint as="offset" />
          </mxGeometry>
        </mxCell>
      </root>
    </mxGraphModel>
  </diagram>
  <diagram id="qgt4MR3Tzsuyhh5v1kFm" name="Account settings">
    <mxGraphModel dx="693" dy="543" grid="1" gridSize="10" guides="1" tooltips="1" connect="1" arrows="1" fold="1" page="1" pageScale="1" pageWidth="850" pageHeight="1100" math="0" shadow="0">
      <root>
        <mxCell id="0" />
        <mxCell id="1" parent="0" />
        <mxCell id="6oWQ0G4bYnaP9uKS-uv9-1" value="Application" style="rounded=1;whiteSpace=wrap;html=1;" parent="1" vertex="1">
          <mxGeometry x="355" y="140" width="120" height="60" as="geometry" />
        </mxCell>
        <mxCell id="6oWQ0G4bYnaP9uKS-uv9-2" value="Backend" style="rounded=1;whiteSpace=wrap;html=1;" parent="1" vertex="1">
          <mxGeometry x="550" y="140" width="120" height="60" as="geometry" />
        </mxCell>
        <mxCell id="6oWQ0G4bYnaP9uKS-uv9-3" value="" style="endArrow=none;dashed=1;html=1;rounded=0;" parent="1" edge="1">
          <mxGeometry width="50" height="50" relative="1" as="geometry">
            <mxPoint x="240" y="680" as="sourcePoint" />
            <mxPoint x="240" y="190" as="targetPoint" />
          </mxGeometry>
        </mxCell>
        <mxCell id="6oWQ0G4bYnaP9uKS-uv9-4" value="student" style="shape=umlActor;verticalLabelPosition=bottom;verticalAlign=top;html=1;outlineConnect=0;" parent="1" vertex="1">
          <mxGeometry x="220" y="120" width="30" height="60" as="geometry" />
        </mxCell>
        <mxCell id="6oWQ0G4bYnaP9uKS-uv9-5" value="" style="endArrow=none;dashed=1;html=1;rounded=0;entryX=0.449;entryY=1.027;entryDx=0;entryDy=0;entryPerimeter=0;" parent="1" target="6oWQ0G4bYnaP9uKS-uv9-1" edge="1">
          <mxGeometry width="50" height="50" relative="1" as="geometry">
            <mxPoint x="410" y="680" as="sourcePoint" />
            <mxPoint x="415" y="200" as="targetPoint" />
          </mxGeometry>
        </mxCell>
        <mxCell id="6oWQ0G4bYnaP9uKS-uv9-6" value="" style="endArrow=none;dashed=1;html=1;rounded=0;" parent="1" edge="1">
          <mxGeometry width="50" height="50" relative="1" as="geometry">
            <mxPoint x="609.5" y="680" as="sourcePoint" />
            <mxPoint x="609" y="200" as="targetPoint" />
          </mxGeometry>
        </mxCell>
        <mxCell id="6oWQ0G4bYnaP9uKS-uv9-7" value="" style="endArrow=classic;html=1;rounded=0;" parent="1" edge="1">
          <mxGeometry width="50" height="50" relative="1" as="geometry">
            <mxPoint x="240" y="280" as="sourcePoint" />
            <mxPoint x="410" y="280" as="targetPoint" />
          </mxGeometry>
        </mxCell>
        <mxCell id="6oWQ0G4bYnaP9uKS-uv9-8" value="Access_account_settings()" style="edgeLabel;html=1;align=center;verticalAlign=middle;resizable=0;points=[];" parent="6oWQ0G4bYnaP9uKS-uv9-7" vertex="1" connectable="0">
          <mxGeometry x="-0.2727" y="-1" relative="1" as="geometry">
            <mxPoint x="8" y="-11" as="offset" />
          </mxGeometry>
        </mxCell>
        <mxCell id="6oWQ0G4bYnaP9uKS-uv9-9" value="" style="endArrow=classic;html=1;rounded=0;" parent="1" edge="1">
          <mxGeometry width="50" height="50" relative="1" as="geometry">
            <mxPoint x="410" y="420" as="sourcePoint" />
            <mxPoint x="610" y="420" as="targetPoint" />
          </mxGeometry>
        </mxCell>
        <mxCell id="6oWQ0G4bYnaP9uKS-uv9-10" value="Request_violation_records()" style="edgeLabel;html=1;align=center;verticalAlign=middle;resizable=0;points=[];" parent="6oWQ0G4bYnaP9uKS-uv9-9" vertex="1" connectable="0">
          <mxGeometry x="-0.265" y="1" relative="1" as="geometry">
            <mxPoint x="25" y="-9" as="offset" />
          </mxGeometry>
        </mxCell>
        <mxCell id="6oWQ0G4bYnaP9uKS-uv9-11" value="" style="rounded=1;whiteSpace=wrap;html=1;fontSize=12;fillColor=none;" parent="1" vertex="1">
          <mxGeometry x="610" y="290" width="30" height="30" as="geometry" />
        </mxCell>
        <mxCell id="6oWQ0G4bYnaP9uKS-uv9-12" value="Retrieve records" style="text;html=1;align=center;verticalAlign=middle;resizable=0;points=[];autosize=1;strokeColor=none;fillColor=none;fontSize=12;" parent="1" vertex="1">
          <mxGeometry x="640" y="290" width="110" height="30" as="geometry" />
        </mxCell>
        <mxCell id="6oWQ0G4bYnaP9uKS-uv9-13" value="" style="endArrow=classic;html=1;rounded=0;dashed=1;" parent="1" edge="1">
          <mxGeometry width="50" height="50" relative="1" as="geometry">
            <mxPoint x="605" y="470" as="sourcePoint" />
            <mxPoint x="410" y="470" as="targetPoint" />
          </mxGeometry>
        </mxCell>
        <mxCell id="6oWQ0G4bYnaP9uKS-uv9-14" value="Black points, paid/unpaid violations" style="edgeLabel;html=1;align=center;verticalAlign=middle;resizable=0;points=[];" parent="6oWQ0G4bYnaP9uKS-uv9-13" vertex="1" connectable="0">
          <mxGeometry x="0.0099" y="-2" relative="1" as="geometry">
            <mxPoint x="6" y="22" as="offset" />
          </mxGeometry>
        </mxCell>
        <mxCell id="6oWQ0G4bYnaP9uKS-uv9-15" value="" style="endArrow=classic;html=1;rounded=0;dashed=1;" parent="1" edge="1">
          <mxGeometry width="50" height="50" relative="1" as="geometry">
            <mxPoint x="410" y="304.66" as="sourcePoint" />
            <mxPoint x="240" y="304.66" as="targetPoint" />
            <Array as="points">
              <mxPoint x="320" y="304.66" />
            </Array>
          </mxGeometry>
        </mxCell>
        <mxCell id="6oWQ0G4bYnaP9uKS-uv9-16" value="Display_account_settings()" style="edgeLabel;html=1;align=center;verticalAlign=middle;resizable=0;points=[];" parent="6oWQ0G4bYnaP9uKS-uv9-15" vertex="1" connectable="0">
          <mxGeometry x="0.0093" relative="1" as="geometry">
            <mxPoint y="10" as="offset" />
          </mxGeometry>
        </mxCell>
      </root>
    </mxGraphModel>
  </diagram>
  <diagram id="78ZMzLcU1uIFWTO2TKYu" name="Page-6">
    <mxGraphModel dx="693" dy="543" grid="1" gridSize="10" guides="1" tooltips="1" connect="1" arrows="1" fold="1" page="1" pageScale="1" pageWidth="850" pageHeight="1100" math="0" shadow="0">
      <root>
        <mxCell id="0" />
        <mxCell id="1" parent="0" />
        <mxCell id="YVDwX8TTkJwkC1oWLqCd-1" value="Application" style="rounded=1;whiteSpace=wrap;html=1;" vertex="1" parent="1">
          <mxGeometry x="325" y="120" width="120" height="60" as="geometry" />
        </mxCell>
        <mxCell id="YVDwX8TTkJwkC1oWLqCd-2" value="Backend" style="rounded=1;whiteSpace=wrap;html=1;" vertex="1" parent="1">
          <mxGeometry x="520" y="120" width="120" height="60" as="geometry" />
        </mxCell>
        <mxCell id="YVDwX8TTkJwkC1oWLqCd-3" value="" style="endArrow=none;dashed=1;html=1;rounded=0;" edge="1" parent="1">
          <mxGeometry width="50" height="50" relative="1" as="geometry">
            <mxPoint x="200" y="640" as="sourcePoint" />
            <mxPoint x="200" y="170" as="targetPoint" />
          </mxGeometry>
        </mxCell>
        <mxCell id="YVDwX8TTkJwkC1oWLqCd-4" value="Administration" style="shape=umlActor;verticalLabelPosition=bottom;verticalAlign=top;html=1;outlineConnect=0;" vertex="1" parent="1">
          <mxGeometry x="180" y="100" width="30" height="60" as="geometry" />
        </mxCell>
        <mxCell id="YVDwX8TTkJwkC1oWLqCd-5" value="" style="endArrow=none;dashed=1;html=1;rounded=0;" edge="1" parent="1">
          <mxGeometry width="50" height="50" relative="1" as="geometry">
            <mxPoint x="385" y="650" as="sourcePoint" />
            <mxPoint x="385" y="180" as="targetPoint" />
          </mxGeometry>
        </mxCell>
        <mxCell id="YVDwX8TTkJwkC1oWLqCd-6" value="" style="endArrow=none;dashed=1;html=1;rounded=0;" edge="1" parent="1">
          <mxGeometry width="50" height="50" relative="1" as="geometry">
            <mxPoint x="580" y="650" as="sourcePoint" />
            <mxPoint x="579.5" y="180" as="targetPoint" />
          </mxGeometry>
        </mxCell>
        <mxCell id="YVDwX8TTkJwkC1oWLqCd-7" value="" style="endArrow=classic;html=1;rounded=0;" edge="1" parent="1">
          <mxGeometry width="50" height="50" relative="1" as="geometry">
            <mxPoint x="210" y="240" as="sourcePoint" />
            <mxPoint x="380" y="240" as="targetPoint" />
          </mxGeometry>
        </mxCell>
        <mxCell id="YVDwX8TTkJwkC1oWLqCd-8" value="view_objection_requests()" style="edgeLabel;html=1;align=center;verticalAlign=middle;resizable=0;points=[];" vertex="1" connectable="0" parent="YVDwX8TTkJwkC1oWLqCd-7">
          <mxGeometry x="-0.2727" y="-1" relative="1" as="geometry">
            <mxPoint x="8" y="-11" as="offset" />
          </mxGeometry>
        </mxCell>
        <mxCell id="YVDwX8TTkJwkC1oWLqCd-9" value="" style="endArrow=classic;html=1;rounded=0;" edge="1" parent="1">
          <mxGeometry width="50" height="50" relative="1" as="geometry">
            <mxPoint x="385" y="260" as="sourcePoint" />
            <mxPoint x="575" y="260" as="targetPoint" />
          </mxGeometry>
        </mxCell>
        <mxCell id="YVDwX8TTkJwkC1oWLqCd-10" value="Request_objection_requests()" style="edgeLabel;html=1;align=center;verticalAlign=middle;resizable=0;points=[];" vertex="1" connectable="0" parent="YVDwX8TTkJwkC1oWLqCd-9">
          <mxGeometry x="-0.265" y="1" relative="1" as="geometry">
            <mxPoint x="25" y="-9" as="offset" />
          </mxGeometry>
        </mxCell>
        <mxCell id="YVDwX8TTkJwkC1oWLqCd-11" value="" style="rounded=0;whiteSpace=wrap;html=1;fontSize=12;" vertex="1" parent="1">
          <mxGeometry x="580" y="270" width="30" height="30" as="geometry" />
        </mxCell>
        <mxCell id="YVDwX8TTkJwkC1oWLqCd-12" value="Retrieve records" style="text;html=1;align=center;verticalAlign=middle;resizable=0;points=[];autosize=1;strokeColor=none;fillColor=none;fontSize=12;" vertex="1" parent="1">
          <mxGeometry x="600" y="270" width="110" height="30" as="geometry" />
        </mxCell>
        <mxCell id="YVDwX8TTkJwkC1oWLqCd-13" value="" style="endArrow=classic;html=1;rounded=0;dashed=1;" edge="1" parent="1">
          <mxGeometry width="50" height="50" relative="1" as="geometry">
            <mxPoint x="570" y="310" as="sourcePoint" />
            <mxPoint x="390" y="310" as="targetPoint" />
            <Array as="points">
              <mxPoint x="490" y="310" />
            </Array>
          </mxGeometry>
        </mxCell>
        <mxCell id="vSMP4bwURVY8Vq4-JlrH-1" value="objections list&amp;nbsp;" style="edgeLabel;html=1;align=center;verticalAlign=middle;resizable=0;points=[];" vertex="1" connectable="0" parent="YVDwX8TTkJwkC1oWLqCd-13">
          <mxGeometry x="0.0873" relative="1" as="geometry">
            <mxPoint x="8" as="offset" />
          </mxGeometry>
        </mxCell>
        <mxCell id="YVDwX8TTkJwkC1oWLqCd-15" value="" style="endArrow=classic;html=1;rounded=0;dashed=1;" edge="1" parent="1">
          <mxGeometry width="50" height="50" relative="1" as="geometry">
            <mxPoint x="380" y="340" as="sourcePoint" />
            <mxPoint x="210" y="340" as="targetPoint" />
            <Array as="points">
              <mxPoint x="290" y="340" />
            </Array>
          </mxGeometry>
        </mxCell>
        <mxCell id="YVDwX8TTkJwkC1oWLqCd-16" value="Display list()" style="edgeLabel;html=1;align=center;verticalAlign=middle;resizable=0;points=[];" vertex="1" connectable="0" parent="YVDwX8TTkJwkC1oWLqCd-15">
          <mxGeometry x="0.0093" relative="1" as="geometry">
            <mxPoint as="offset" />
          </mxGeometry>
        </mxCell>
        <mxCell id="D0Fy53WAPz6BEl7_avpJ-1" value="opt" style="shape=umlFrame;whiteSpace=wrap;html=1;pointerEvents=0;fontSize=12;" vertex="1" parent="1">
          <mxGeometry x="125" y="620" width="505" height="150" as="geometry" />
        </mxCell>
        <mxCell id="sb5ip4sKtYN_lp6dYITw-1" value="" style="endArrow=none;dashed=1;html=1;rounded=0;" edge="1" parent="1">
          <mxGeometry width="50" height="50" relative="1" as="geometry">
            <mxPoint x="130" y="490" as="sourcePoint" />
            <mxPoint x="635" y="490" as="targetPoint" />
          </mxGeometry>
        </mxCell>
        <mxCell id="174L2LtaVqqicwmaeI_x-1" value="[accept]" style="text;html=1;align=center;verticalAlign=middle;resizable=0;points=[];autosize=1;strokeColor=none;fillColor=none;" vertex="1" parent="1">
          <mxGeometry x="125" y="410" width="70" height="30" as="geometry" />
        </mxCell>
        <mxCell id="174L2LtaVqqicwmaeI_x-2" value="[reject]" style="text;html=1;align=center;verticalAlign=middle;resizable=0;points=[];autosize=1;strokeColor=none;fillColor=none;" vertex="1" parent="1">
          <mxGeometry x="130" y="520" width="60" height="30" as="geometry" />
        </mxCell>
        <mxCell id="174L2LtaVqqicwmaeI_x-6" value="" style="endArrow=classic;html=1;rounded=0;dashed=1;" edge="1" parent="1">
          <mxGeometry width="50" height="50" relative="1" as="geometry">
            <mxPoint x="200" y="400" as="sourcePoint" />
            <mxPoint x="390" y="400" as="targetPoint" />
          </mxGeometry>
        </mxCell>
      </root>
    </mxGraphModel>
  </diagram>
</mxfile>
